<?xml version="1.0" encoding="UTF-8"?>
<svg xmlns="http://www.w3.org/2000/svg" viewBox="0 0 128 128" role="img" aria-label="NLT Labs AN mark compact (favicon-friendly)">
  <title>NLT Labs  AN mark compact</title>
  <defs>
    <linearGradient id="nlt-an-grad-sm" x1="1" y1="0" x2="0" y2="1" gradientUnits="objectBoundingBox">
      <stop offset="0" stop-color="#d97706"/>
      <stop offset="1" stop-color="#f59e0b"/>
    </linearGradient>
  </defs>
  <!-- Same topology as NLTWeb master; tight viewBox for 1664px raster exports. See docs in NLTWeb BRAND-SYMBOLS.md. -->
  <path
    fill="url(#nlt-an-grad-sm)"
    d="M60.4622641509434 114Q60.4622641509434 102.56132075471699 60.049528301886795 92.30188679245283Q59.63679245283019 82.04245283018868 58.929245283018865 72.9622641509434Q51.735849056603776 82.27830188679245 46.54716981132076 90.29716981132074Q41.35849056603774 98.31603773584905 37.70283018867924 104.68396226415095Q31.21698113207547 94.18867924528303 19.660377358490567 86.64150943396227Q26.028301886792452 82.98584905660377 33.988207547169814 77.79716981132076Q41.94811320754717 72.60849056603774 51.382075471698116 65.41509433962264Q39.70754716981132 66.94811320754717 30.391509433962263 68.89386792452831Q21.07547169811321 70.83962264150944 14 72.84433962264151Q15.415094339622641 66.12264150943396 15.415094339622641 59.75471698113208Q15.415094339622641 53.386792452830186 14 47.37264150943396Q20.25 49.14150943396226 28.150943396226417 50.85141509433962Q36.051886792452834 52.56132075471698 45.721698113207545 53.97641509433962Q38.056603773584904 48.31603773584906 31.3938679245283 44.07075471698113Q24.7311320754717 39.825471698113205 19.18867924528302 36.64150943396227Q30.745283018867923 28.97641509433963 37.2311320754717 18.59905660377359Q40.533018867924525 24.37735849056604 45.19103773584905 31.629716981132077Q49.84905660377358 38.882075471698116 56.09905660377358 47.25471698113208Q54.56603773584906 36.99528301886792 52.79716981132076 28.740566037735846Q51.028301886792455 20.48584905660377 49.259433962264154 14Q55.27358490566038 15.415094339622641 61.64150943396226 15.415094339622641Q68.00943396226415 15.415094339622641 74.7311320754717 14Q72.72641509433963 21.311320754716974 70.78066037735849 30.92216981132075Q68.83490566037736 40.533018867924525 67.18396226415095 52.679245283018865Q74.37735849056604 46.66509433962264 82.16037735849056 39.471698113207545Q89.94339622641509 32.27830188679245 98.31603773584905 23.905660377358487L100.43867924528303 26.02830188679245Q92.06603773584905 34.40094339622641 84.99056603773585 42.125Q77.91509433962264 49.84905660377358 71.78301886792453 57.04245283018868Q81.09905660377359 57.75 91.65330188679246 58.1627358490566Q102.20754716981132 58.575471698113205 114 58.575471698113205V61.64150943396226Q101.26415094339623 61.64150943396226 90.00235849056604 62.11320754716981Q78.74056603773585 62.58490566037736 68.95283018867924 63.528301886792455Q75.32075471698113 71.19339622641509 83.04481132075472 79.68396226415095Q90.76886792452831 88.1745283018868 99.96698113207547 97.25471698113208L97.84433962264151 99.37735849056604Q89 90.65094339622641 80.86320754716982 83.1627358490566Q72.72641509433963 75.6745283018868 65.29716981132076 69.4245283018868Q64.47169811320754 79.09433962264151 64 90.23820754716982Q63.528301886792455 101.38207547169812 63.528301886792455 114Z"
  />
</svg>
